<svg width="314.61875px" height="119.6px" xmlns="http://www.w3.org/2000/svg" viewBox="92.69062500000001 15.200000000000003 314.61875 119.6" style="background: rgba(0, 0, 0, 0);" preserveAspectRatio="xMidYMid"><defs><linearGradient id="editing-gradient-gradient" x1="0" x2="1" y1="0.5" y2="0.5" gradientUnits="objectBoundingBox"><stop offset="0" stop-color="#ff7e00"></stop><stop offset="1" stop-color="#ffb700"></stop></linearGradient></defs><g><g transform="translate(140.49498748779297, 104.95000457763672)"><path d="M3.84 0.19L3.84 0.19Q3.33 0.19 3.04-0.22L3.04-0.22L3.04-0.22Q2.75-0.64 2.75-1.22L2.75-1.22L2.75-1.22Q2.82-2.18 3.14-2.37L3.14-2.37L3.14-2.37Q3.46-2.56 4.35-2.56L4.35-2.56L4.35-2.56Q6.21-2.56 7.10-3.23L7.10-3.23L7.10-3.23Q8-3.90 8.22-4.90L8.22-4.90L8.22-4.90Q8.45-5.89 8.51-7.49L8.51-7.49L8.51-32.90L8.51-32.90Q8.45-34.50 8.22-35.49L8.22-35.49L8.22-35.49Q8-36.48 7.10-37.15L7.10-37.15L7.10-37.15Q6.21-37.82 4.35-37.82L4.35-37.82L3.97-37.82L3.97-37.82Q3.33-37.82 3.07-38.05L3.07-38.05L3.07-38.05Q2.82-38.27 2.75-39.17L2.75-39.17L2.75-39.17Q2.75-39.74 3.04-40.16L3.04-40.16L3.04-40.16Q3.33-40.58 3.84-40.58L3.84-40.58L3.84-40.58Q8.06-40.38 11.46-40.38L11.46-40.38L11.46-40.38Q15.30-40.38 19.46-40.58L19.46-40.58L19.46-40.58Q20.03-40.58 20.32-40.16L20.32-40.16L20.32-40.16Q20.61-39.74 20.61-39.17L20.61-39.17L20.61-39.17Q20.54-38.21 20.19-38.02L20.19-38.02L20.19-38.02Q19.84-37.82 19.01-37.82L19.01-37.82L19.01-37.82Q17.15-37.82 16.26-37.15L16.26-37.15L16.26-37.15Q15.36-36.48 15.14-35.49L15.14-35.49L15.14-35.49Q14.91-34.50 14.85-32.90L14.85-32.90L14.85-6.53L14.85-6.53Q14.98-5.18 15.17-4.45L15.17-4.45L15.17-4.45Q15.36-3.71 16.32-3.10L16.32-3.10L16.32-3.10Q17.28-2.50 19.33-2.56L19.33-2.56L25.09-2.56L25.09-2.56Q27.33-2.62 28.48-3.30L28.48-3.30L28.48-3.30Q29.63-3.97 30.30-5.38L30.30-5.38L30.30-5.38Q30.98-6.78 31.94-9.98L31.94-9.98L31.94-9.98Q32.38-11.14 34.11-10.88L34.11-10.88L34.11-10.88Q34.69-10.75 35.20-10.37L35.20-10.37L35.20-10.37Q35.71-9.98 35.65-9.41L35.65-9.41L34.37-1.34L34.37-1.34Q34.18-0.51 33.79-0.26L33.79-0.26L33.79-0.26Q33.41 0 32.51 0L32.51 0L11.52 0L11.52 0Q8.06 0 3.84 0.19L3.84 0.19ZM39.68 0.19L39.68 0.19Q39.23 0.19 38.94-0.19L38.94-0.19L38.94-0.19Q38.66-0.58 38.66-1.09L38.66-1.09L38.66-1.09Q38.72-1.92 39.04-2.08L39.04-2.08L39.04-2.08Q39.36-2.24 40.19-2.24L40.19-2.24L40.19-2.24Q41.86-2.24 42.56-2.82L42.56-2.82L42.56-2.82Q43.26-3.39 43.36-4.16L43.36-4.16L43.36-4.16Q43.46-4.93 43.46-6.59L43.46-6.59L43.46-21.25L43.46-21.25Q43.46-22.91 43.36-23.68L43.36-23.68L43.36-23.68Q43.26-24.45 42.56-25.02L42.56-25.02L42.56-25.02Q41.86-25.60 40.19-25.60L40.19-25.60L40.19-25.60Q39.42-25.60 39.04-25.82L39.04-25.82L39.04-25.82Q38.66-26.05 38.66-26.88L38.66-26.88L38.66-26.88Q38.66-27.26 38.91-27.62L38.91-27.62L38.91-27.62Q39.17-27.97 39.68-28.03L39.68-28.03L39.68-28.03Q43.71-28.61 46.59-29.70L46.59-29.70L46.59-29.70Q47.49-30.02 48.06-30.08L48.06-30.08L48.26-30.08L48.26-30.08Q49.28-30.08 49.28-28.86L49.28-28.86L49.28-6.59L49.28-6.59Q49.28-4.93 49.41-4.16L49.41-4.16L49.41-4.16Q49.54-3.39 50.24-2.82L50.24-2.82L50.24-2.82Q50.94-2.24 52.61-2.24L52.61-2.24L52.99-2.24L52.99-2.24Q53.50-2.24 53.76-2.05L53.76-2.05L53.76-2.05Q54.02-1.86 54.08-1.09L54.08-1.09L54.08-1.09Q54.08-0.58 53.82-0.19L53.82-0.19L53.82-0.19Q53.57 0.19 53.06 0.19L53.06 0.19L53.06 0.19Q49.34 0 46.34 0L46.34 0L46.34 0Q43.46 0 39.68 0.19L39.68 0.19ZM46.02-37.18L46.02-37.18Q44.22-37.18 43.01-38.30L43.01-38.30L43.01-38.30Q41.79-39.42 41.79-41.09L41.79-41.09L41.79-41.09Q41.79-42.56 43.26-43.71L43.26-43.71L43.26-43.71Q44.74-44.86 46.59-44.86L46.59-44.86L46.59-44.86Q48.19-44.86 49.22-43.74L49.22-43.74L49.22-43.74Q50.24-42.62 50.24-40.90L50.24-40.90L50.24-40.90Q50.24-39.36 49.02-38.27L49.02-38.27L49.02-38.27Q47.81-37.18 46.02-37.18L46.02-37.18ZM76.67 13.31L76.67 13.31Q76.22 13.31 75.97 12.93L75.97 12.93L75.97 12.93Q75.71 12.54 75.71 12.03L75.71 12.03L75.71 12.03Q75.78 11.20 76.06 11.04L76.06 11.04L76.06 11.04Q76.35 10.88 77.18 10.88L77.18 10.88L77.18 10.88Q78.72 10.88 79.42 10.30L79.42 10.30L79.42 10.30Q80.13 9.73 80.29 8.90L80.29 8.90L80.29 8.90Q80.45 8.06 80.45 6.53L80.45 6.53L80.45-2.88L80.26-2.88L80.26-2.88Q78.91-1.41 76.67-0.32L76.67-0.32L76.67-0.32Q74.43 0.77 71.74 0.77L71.74 0.77L71.74 0.77Q68.03 0.77 64.90-1.15L64.90-1.15L64.90-1.15Q61.76-3.07 59.94-6.66L59.94-6.66L59.94-6.66Q58.11-10.24 58.11-14.85L58.11-14.85L58.11-14.85Q58.11-18.94 60.16-22.37L60.16-22.37L60.16-22.37Q62.21-25.79 65.63-27.78L65.63-27.78L65.63-27.78Q69.06-29.76 72.90-29.76L72.90-29.76L72.90-29.76Q75.71-29.76 77.60-29.09L77.60-29.09L77.60-29.09Q79.49-28.42 80.61-27.74L80.61-27.74L80.61-27.74Q81.73-27.07 82.11-26.88L82.11-26.88L82.43-26.88L82.43-26.88Q82.62-27.26 83.07-28.26L83.07-28.26L83.07-28.26Q83.52-29.25 84.03-29.86L84.03-29.86L84.03-29.86Q84.54-30.46 85.12-30.46L85.12-30.46L85.12-30.46Q85.70-30.46 86.02-30.11L86.02-30.11L86.02-30.11Q86.34-29.76 86.34-29.18L86.34-29.18L86.34 6.53L86.34 6.53Q86.34 8.06 86.46 8.90L86.46 8.90L86.46 8.90Q86.59 9.73 87.30 10.30L87.30 10.30L87.30 10.30Q88 10.88 89.60 10.88L89.60 10.88L89.98 10.88L89.98 10.88Q90.56 10.88 90.78 11.07L90.78 11.07L90.78 11.07Q91.01 11.26 91.07 12.03L91.07 12.03L91.07 12.03Q91.07 12.54 90.82 12.93L90.82 12.93L90.82 12.93Q90.56 13.31 90.05 13.31L90.05 13.31L90.05 13.31Q86.27 13.12 83.33 13.12L83.33 13.12L83.33 13.12Q80.45 13.12 76.67 13.31L76.67 13.31ZM73.86-2.37L73.86-2.37Q75.97-2.37 77.54-3.17L77.54-3.17L77.54-3.17Q79.10-3.97 80.45-5.38L80.45-5.38L80.45-22.72L80.45-22.72Q79.81-24.64 78.02-26.08L78.02-26.08L78.02-26.08Q76.22-27.52 73.22-27.52L73.22-27.52L73.22-27.52Q70.78-27.52 68.80-25.89L68.80-25.89L68.80-25.89Q66.82-24.26 65.70-21.25L65.70-21.25L65.70-21.25Q64.58-18.24 64.58-14.21L64.58-14.21L64.58-14.21Q64.58-9.15 66.85-5.76L66.85-5.76L66.85-5.76Q69.12-2.37 73.86-2.37L73.86-2.37ZM106.62 0.77L106.62 0.77Q102.27 0.77 99.71-1.86L99.71-1.86L99.71-1.86Q97.15-4.48 97.15-8.77L97.15-8.77L97.15-20.61L97.15-20.61Q97.15-22.27 97.06-23.04L97.06-23.04L97.06-23.04Q96.96-23.81 96.26-24.38L96.26-24.38L96.26-24.38Q95.55-24.96 93.89-24.96L93.89-24.96L93.89-24.96Q93.12-24.96 92.74-25.18L92.74-25.18L92.74-25.18Q92.35-25.41 92.35-26.24L92.35-26.24L92.35-26.24Q92.35-26.62 92.61-26.98L92.61-26.98L92.61-26.98Q92.86-27.33 93.38-27.39L93.38-27.39L93.38-27.39Q97.41-27.97 100.29-29.06L100.29-29.06L100.29-29.06Q101.18-29.38 101.76-29.44L101.76-29.44L101.95-29.44L101.95-29.44Q102.98-29.44 102.98-28.22L102.98-28.22L102.98-8.83L102.98-8.83Q102.98-5.89 104.83-4.32L104.83-4.32L104.83-4.32Q106.69-2.75 109.12-2.75L109.12-2.75L109.12-2.75Q112.13-2.75 114.24-4.22L114.24-4.22L114.24-4.22Q116.35-5.70 117.06-7.17L117.06-7.17L117.06-20.61L117.06-20.61Q117.06-22.27 116.96-23.04L116.96-23.04L116.96-23.04Q116.86-23.81 116.16-24.38L116.16-24.38L116.16-24.38Q115.46-24.96 113.79-24.96L113.79-24.96L113.79-24.96Q113.02-24.96 112.64-25.18L112.64-25.18L112.64-25.18Q112.26-25.41 112.26-26.24L112.26-26.24L112.26-26.24Q112.26-26.62 112.51-26.98L112.51-26.98L112.51-26.98Q112.77-27.33 113.28-27.39L113.28-27.39L113.28-27.39Q117.31-27.97 120.19-29.06L120.19-29.06L120.19-29.06Q121.09-29.38 121.66-29.44L121.66-29.44L121.86-29.44L121.86-29.44Q122.88-29.44 122.88-28.22L122.88-28.22L122.88-6.08L122.88-6.08Q122.88-2.30 127.94-2.30L127.94-2.30L127.94-2.30Q129.02-2.30 129.02-1.09L129.02-1.09L129.02-1.09Q129.02-0.19 127.94 0L127.94 0L117.63 0.70L117.63 0.70Q117.18 0.70 117.12 0.42L117.12 0.42L117.12 0.42Q117.06 0.13 117.06-0.58L117.06-0.58L117.06-4.16L116.93-4.16L116.93-4.16Q115.07-2.43 113.92-1.50L113.92-1.50L113.92-1.50Q112.77-0.58 110.94 0.10L110.94 0.10L110.94 0.10Q109.12 0.77 106.62 0.77L106.62 0.77ZM132.54 0.19L132.54 0.19Q132.10 0.19 131.81-0.19L131.81-0.19L131.81-0.19Q131.52-0.58 131.52-1.09L131.52-1.09L131.52-1.09Q131.58-1.92 131.90-2.08L131.90-2.08L131.90-2.08Q132.22-2.24 133.06-2.24L133.06-2.24L133.06-2.24Q134.72-2.24 135.42-2.82L135.42-2.82L135.42-2.82Q136.13-3.39 136.22-4.16L136.22-4.16L136.22-4.16Q136.32-4.93 136.32-6.59L136.32-6.59L136.32-21.25L136.32-21.25Q136.32-22.91 136.22-23.68L136.22-23.68L136.22-23.68Q136.13-24.45 135.42-25.02L135.42-25.02L135.42-25.02Q134.72-25.60 133.06-25.60L133.06-25.60L133.06-25.60Q132.29-25.60 131.90-25.82L131.90-25.82L131.90-25.82Q131.52-26.05 131.52-26.88L131.52-26.88L131.52-26.88Q131.52-27.26 131.78-27.62L131.78-27.62L131.78-27.62Q132.03-27.97 132.54-28.03L132.54-28.03L132.54-28.03Q136.58-28.61 139.46-29.70L139.46-29.70L139.46-29.70Q140.35-30.02 140.93-30.08L140.93-30.08L141.12-30.08L141.12-30.08Q142.14-30.08 142.14-28.86L142.14-28.86L142.14-6.59L142.14-6.59Q142.14-4.93 142.27-4.16L142.27-4.16L142.27-4.16Q142.40-3.39 143.10-2.82L143.10-2.82L143.10-2.82Q143.81-2.24 145.47-2.24L145.47-2.24L145.86-2.24L145.86-2.24Q146.37-2.24 146.62-2.05L146.62-2.05L146.62-2.05Q146.88-1.86 146.94-1.09L146.94-1.09L146.94-1.09Q146.94-0.58 146.69-0.19L146.69-0.19L146.69-0.19Q146.43 0.19 145.92 0.19L145.92 0.19L145.92 0.19Q142.21 0 139.20 0L139.20 0L139.20 0Q136.32 0 132.54 0.19L132.54 0.19ZM138.88-37.18L138.88-37.18Q137.09-37.18 135.87-38.30L135.87-38.30L135.87-38.30Q134.66-39.42 134.66-41.09L134.66-41.09L134.66-41.09Q134.66-42.56 136.13-43.71L136.13-43.71L136.13-43.71Q137.60-44.86 139.46-44.86L139.46-44.86L139.46-44.86Q141.06-44.86 142.08-43.74L142.08-43.74L142.08-43.74Q143.10-42.62 143.10-40.90L143.10-40.90L143.10-40.90Q143.10-39.36 141.89-38.27L141.89-38.27L141.89-38.27Q140.67-37.18 138.88-37.18L138.88-37.18ZM164.42 0.77L164.42 0.77Q160.83 0.77 157.76-1.18L157.76-1.18L157.76-1.18Q154.69-3.14 152.83-6.62L152.83-6.62L152.83-6.62Q150.98-10.11 150.98-14.53L150.98-14.53L150.98-14.53Q150.98-18.50 152.90-22.02L152.90-22.02L152.90-22.02Q154.82-25.54 158.21-27.65L158.21-27.65L158.21-27.65Q161.60-29.76 165.76-29.76L165.76-29.76L165.76-29.76Q167.74-29.76 169.73-29.28L169.73-29.28L169.73-29.28Q171.71-28.80 173.18-27.97L173.18-27.97L173.38-27.97L173.38-37.76L173.38-37.76Q173.38-39.42 173.28-40.19L173.28-40.19L173.28-40.19Q173.18-40.96 172.48-41.54L172.48-41.54L172.48-41.54Q171.78-42.11 170.11-42.11L170.11-42.11L170.11-42.11Q169.34-42.11 168.96-42.34L168.96-42.34L168.96-42.34Q168.58-42.56 168.58-43.39L168.58-43.39L168.58-43.39Q168.58-43.78 168.83-44.13L168.83-44.13L168.83-44.13Q169.09-44.48 169.60-44.54L169.60-44.54L169.60-44.54Q173.63-45.12 176.51-46.21L176.51-46.21L176.51-46.21Q177.41-46.53 177.98-46.59L177.98-46.59L178.18-46.59L178.18-46.59Q179.20-46.59 179.20-45.38L179.20-45.38L179.20-5.89L179.20-5.89Q179.20-2.11 184.19-2.11L184.19-2.11L184.19-2.11Q185.28-2.11 185.28-1.09L185.28-1.09L185.28-1.09Q185.28-0.19 184.19 0L184.19 0L174.02 0.70L174.02 0.70Q173.57 0.70 173.50 0.42L173.50 0.42L173.50 0.42Q173.44 0.13 173.44-0.58L173.44-0.58L173.44-3.14L173.25-3.14L173.25-3.14Q171.58-1.41 169.18-0.32L169.18-0.32L169.18-0.32Q166.78 0.77 164.42 0.77L164.42 0.77ZM166.59-2.43L166.59-2.43Q168.83-2.43 170.40-3.30L170.40-3.30L170.40-3.30Q171.97-4.16 173.38-5.63L173.38-5.63L173.38-22.53L173.38-22.53Q172.80-24.38 170.98-25.92L170.98-25.92L170.98-25.92Q169.15-27.46 166.40-27.46L166.40-27.46L166.40-27.46Q163.90-27.46 161.89-25.89L161.89-25.89L161.89-25.89Q159.87-24.32 158.72-21.31L158.72-21.31L158.72-21.31Q157.57-18.30 157.57-14.21L157.57-14.21L157.57-14.21Q157.57-9.28 159.90-5.86L159.90-5.86L159.90-5.86Q162.24-2.43 166.59-2.43L166.59-2.43ZM196.22 0.77L196.22 0.77Q192.38 0.77 190.02-1.41L190.02-1.41L190.02-1.41Q187.65-3.58 187.65-6.85L187.65-6.85L187.65-6.85Q187.65-10.88 190.34-12.90L190.34-12.90L190.34-12.90Q193.02-14.91 196.74-15.52L196.74-15.52L196.74-15.52Q200.45-16.13 206.34-16.45L206.34-16.45L206.34-21.50L206.34-21.50Q206.34-24.64 204.77-26.27L204.77-26.27L204.77-26.27Q203.20-27.90 199.74-27.90L199.74-27.90L199.74-27.90Q197.76-27.90 196.29-26.69L196.29-26.69L196.29-26.69Q194.82-25.47 194.82-23.42L194.82-23.42L194.82-23.42Q194.82-22.40 195.30-21.73L195.30-21.73L195.30-21.73Q195.78-21.06 196.32-20.61L196.32-20.61L196.32-20.61Q196.86-20.16 196.86-20.10L196.86-20.10L196.86-20.10Q196.86-19.71 196.06-19.10L196.06-19.10L196.06-19.10Q195.26-18.50 194.11-18.50L194.11-18.50L194.11-18.50Q192.19-18.50 191.07-19.90L191.07-19.90L191.07-19.90Q189.95-21.31 189.95-23.23L189.95-23.23L189.95-23.23Q189.95-26.56 192.93-28.16L192.93-28.16L192.93-28.16Q195.90-29.76 200.13-29.76L200.13-29.76L200.13-29.76Q205.38-29.76 208.67-27.78L208.67-27.78L208.67-27.78Q211.97-25.79 211.97-20.42L211.97-20.42L211.97-5.50L211.97-5.50Q212.03-4.16 212.80-2.94L212.80-2.94L212.80-2.94Q213.57-1.73 215.30-1.73L215.30-1.73L215.30-1.73Q215.81-1.73 216.03-1.54L216.03-1.54L216.03-1.54Q216.26-1.34 216.26-0.70L216.26-0.70L216.26-0.70Q216.26 0.06 215.07 0.42L215.07 0.42L215.07 0.42Q213.89 0.77 212.74 0.77L212.74 0.77L212.74 0.77Q210.30 0.77 208.45-0.64L208.45-0.64L208.45-0.64Q206.59-2.05 206.34-4.42L206.34-4.42L206.34-4.42Q204.99-1.92 202.21-0.58L202.21-0.58L202.21-0.58Q199.42 0.77 196.22 0.77L196.22 0.77ZM198.27-2.69L198.27-2.69Q200.45-2.69 202.30-3.78L202.30-3.78L202.30-3.78Q204.16-4.86 205.25-6.75L205.25-6.75L205.25-6.75Q206.34-8.64 206.34-10.94L206.34-10.94L206.34-14.59L206.34-14.59Q199.62-14.08 196.86-12.42L196.86-12.42L196.86-12.42Q194.11-10.75 194.11-7.04L194.11-7.04L194.11-7.04Q194.11-2.69 198.27-2.69L198.27-2.69Z" fill="url(#editing-gradient-gradient)"></path></g></g><style>text {
  font-size: 64px;
  font-family: Arial Black;
  dominant-baseline: central;
  text-anchor: middle;
}</style></svg>