<svg width="287.84375px" height="118.39999999999999px" xmlns="http://www.w3.org/2000/svg" viewBox="106.078125 15.800000000000004 287.84375 118.39999999999999" style="background: rgba(0, 0, 0, 0);" preserveAspectRatio="xMidYMid"><defs><linearGradient id="editing-gradient-gradient" x1="0" x2="1" y1="0.5" y2="0.5" gradientUnits="objectBoundingBox"><stop offset="0" stop-color="#f0f"></stop><stop offset="1" stop-color="#0ff"></stop></linearGradient></defs><g><g transform="translate(150.7100157737732, 95.3499984741211)"><path d="M3.78 0.19L3.78 0.19Q3.28 0.19 2.96-0.22L2.96-0.22L2.96-0.22Q2.65-0.63 2.65-1.20L2.65-1.20L2.65-1.20Q2.71-2.14 3.06-2.33L3.06-2.33L3.06-2.33Q3.40-2.52 4.28-2.52L4.28-2.52L4.28-2.52Q6.11-2.52 6.99-3.18L6.99-3.18L6.99-3.18Q7.88-3.84 8.10-4.82L8.10-4.82L8.10-4.82Q8.32-5.80 8.38-7.37L8.38-7.37L8.38-32.38L8.38-32.38Q8.32-33.96 8.10-34.93L8.10-34.93L8.10-34.93Q7.88-35.91 6.99-36.57L6.99-36.57L6.99-36.57Q6.11-37.23 4.28-37.23L4.28-37.23L3.91-37.23L3.91-37.23Q3.28-37.23 2.99-37.45L2.99-37.45L2.99-37.45Q2.71-37.67 2.65-38.56L2.65-38.56L2.65-38.56Q2.65-39.12 2.96-39.53L2.96-39.53L2.96-39.53Q3.28-39.94 3.78-39.94L3.78-39.94L3.78-39.94Q7.88-39.75 11.34-39.75L11.34-39.75L20.79-39.75L20.79-39.75Q26.27-39.75 31.41-37.48L31.41-37.48L31.41-37.48Q36.54-35.22 36.54-28.41L36.54-28.41L36.54-28.41Q36.54-24.63 34.27-21.67L34.27-21.67L34.27-21.67Q32.00-18.71 28.38-17.07L28.38-17.07L28.38-17.07Q24.76-15.44 20.85-15.44L20.85-15.44L20.85-15.44Q17.26-15.44 14.55-16.44L14.55-16.44L14.55-7.37L14.55-7.37Q14.62-5.80 14.84-4.82L14.84-4.82L14.84-4.82Q15.06-3.84 15.94-3.18L15.94-3.18L15.94-3.18Q16.82-2.52 18.65-2.52L18.65-2.52L19.03-2.52L19.03-2.52Q19.66-2.52 19.94-2.30L19.94-2.30L19.94-2.30Q20.22-2.08 20.29-1.20L20.29-1.20L20.29-1.20Q20.29-0.63 20.00-0.22L20.00-0.22L20.00-0.22Q19.72 0.19 19.15 0.19L19.15 0.19L19.15 0.19Q15.12 0 11.28 0L11.28 0L11.28 0Q7.88 0 3.78 0.19L3.78 0.19ZM19.03-18.27L19.03-18.27Q21.29-18.27 23.72-19.18L23.72-19.18L23.72-19.18Q26.14-20.10 27.85-22.33L27.85-22.33L27.85-22.33Q29.55-24.57 29.55-28.22L29.55-28.22L29.55-28.22Q29.55-33.77 26.02-35.59L26.02-35.59L26.02-35.59Q22.49-37.42 18.52-37.42L18.52-37.42L18.52-37.42Q16.88-37.42 16.07-37.08L16.07-37.08L16.07-37.08Q15.25-36.73 14.90-35.72L14.90-35.72L14.90-35.72Q14.55-34.71 14.55-32.57L14.55-32.57L14.55-18.96L14.55-18.96Q16.07-18.27 19.03-18.27L19.03-18.27ZM53.17 0.76L53.17 0.76Q48.89 0.76 46.37-1.83L46.37-1.83L46.37-1.83Q43.85-4.41 43.85-8.63L43.85-8.63L43.85-20.29L43.85-20.29Q43.85-21.92 43.75-22.68L43.75-22.68L43.75-22.68Q43.66-23.44 42.97-24.00L42.97-24.00L42.97-24.00Q42.27-24.57 40.63-24.57L40.63-24.57L40.63-24.57Q39.88-24.57 39.50-24.79L39.50-24.79L39.50-24.79Q39.12-25.01 39.12-25.83L39.12-25.83L39.12-25.83Q39.12-26.21 39.38-26.55L39.38-26.55L39.38-26.55Q39.63-26.90 40.13-26.96L40.13-26.96L40.13-26.96Q44.10-27.53 46.94-28.60L46.94-28.60L46.94-28.60Q47.82-28.92 48.38-28.98L48.38-28.98L48.57-28.98L48.57-28.98Q49.58-28.98 49.58-27.78L49.58-27.78L49.58-8.69L49.58-8.69Q49.58-5.80 51.41-4.25L51.41-4.25L51.41-4.25Q53.23-2.71 55.63-2.71L55.63-2.71L55.63-2.71Q58.59-2.71 60.67-4.16L60.67-4.16L60.67-4.16Q62.75-5.61 63.44-7.06L63.44-7.06L63.44-20.29L63.44-20.29Q63.44-21.92 63.35-22.68L63.35-22.68L63.35-22.68Q63.25-23.44 62.56-24.00L62.56-24.00L62.56-24.00Q61.87-24.57 60.23-24.57L60.23-24.57L60.23-24.57Q59.47-24.57 59.09-24.79L59.09-24.79L59.09-24.79Q58.72-25.01 58.72-25.83L58.72-25.83L58.72-25.83Q58.72-26.21 58.97-26.55L58.97-26.55L58.97-26.55Q59.22-26.90 59.72-26.96L59.72-26.96L59.72-26.96Q63.69-27.53 66.53-28.60L66.53-28.60L66.53-28.60Q67.41-28.92 67.98-28.98L67.98-28.98L68.17-28.98L68.17-28.98Q69.17-28.98 69.17-27.78L69.17-27.78L69.17-5.99L69.17-5.99Q69.17-2.27 74.15-2.27L74.15-2.27L74.15-2.27Q75.22-2.27 75.22-1.07L75.22-1.07L75.22-1.07Q75.22-0.19 74.15 0L74.15 0L64.01 0.69L64.01 0.69Q63.57 0.69 63.50 0.41L63.50 0.41L63.50 0.41Q63.44 0.13 63.44-0.57L63.44-0.57L63.44-4.09L63.31-4.09L63.31-4.09Q61.49-2.39 60.35-1.48L60.35-1.48L60.35-1.48Q59.22-0.57 57.42 0.09L57.42 0.09L57.42 0.09Q55.63 0.76 53.17 0.76L53.17 0.76ZM78.69 0.19L78.69 0.19Q78.25 0.19 77.96-0.19L77.96-0.19L77.96-0.19Q77.68-0.57 77.68-1.07L77.68-1.07L77.68-1.07Q77.74-1.89 78.06-2.05L78.06-2.05L78.06-2.05Q78.37-2.21 79.19-2.21L79.19-2.21L79.19-2.21Q80.83-2.21 81.52-2.77L81.52-2.77L81.52-2.77Q82.21-3.34 82.31-4.09L82.31-4.09L82.31-4.09Q82.40-4.85 82.40-6.49L82.40-6.49L82.40-20.92L82.40-20.92Q82.40-22.55 82.31-23.31L82.31-23.31L82.31-23.31Q82.21-24.07 81.52-24.63L81.52-24.63L81.52-24.63Q80.83-25.20 79.19-25.20L79.19-25.20L79.19-25.20Q78.43-25.20 78.06-25.42L78.06-25.42L78.06-25.42Q77.68-25.64 77.68-26.46L77.68-26.46L77.68-26.46Q77.68-26.84 77.93-27.18L77.93-27.18L77.93-27.18Q78.18-27.53 78.69-27.59L78.69-27.59L78.69-27.59Q82.78-28.22 85.43-29.23L85.43-29.23L85.43-29.23Q86.50-29.55 86.88-29.61L86.88-29.61L87.07-29.61L87.07-29.61Q88.07-29.61 88.07-28.41L88.07-28.41L88.07-24.51L88.26-24.51L88.26-24.51Q90.47-26.71 92.74-28.00L92.74-28.00L92.74-28.00Q95.00-29.30 96.83-29.30L96.83-29.30L96.83-29.30Q98.91-29.30 100.14-27.75L100.14-27.75L100.14-27.75Q101.37-26.21 101.37-24.19L101.37-24.19L101.37-24.19Q101.37-22.43 100.30-21.04L100.30-21.04L100.30-21.04Q99.22-19.66 97.33-19.66L97.33-19.66L97.33-19.66Q96.45-19.66 95.79-20.03L95.79-20.03L95.79-20.03Q95.13-20.41 95.07-20.66L95.07-20.66L95.07-20.66Q95.13-20.79 95.70-21.45L95.70-21.45L95.70-21.45Q96.26-22.11 96.26-23.00L96.26-23.00L96.26-23.00Q96.26-24.13 95.67-24.82L95.67-24.82L95.67-24.82Q95.07-25.52 94.06-25.52L94.06-25.52L94.06-25.52Q92.99-25.52 91.35-24.48L91.35-24.48L91.35-24.48Q89.71-23.44 88.14-21.86L88.14-21.86L88.14-6.49L88.14-6.49Q88.14-4.85 88.26-4.09L88.26-4.09L88.26-4.09Q88.39-3.34 89.08-2.77L89.08-2.77L89.08-2.77Q89.77-2.21 91.41-2.21L91.41-2.21L91.79-2.21L91.79-2.21Q92.29-2.21 92.55-2.02L92.55-2.02L92.55-2.02Q92.80-1.83 92.86-1.07L92.86-1.07L92.86-1.07Q92.86-0.57 92.61-0.19L92.61-0.19L92.61-0.19Q92.36 0.19 91.85 0.19L91.85 0.19L91.85 0.19Q88.20 0 85.24 0L85.24 0L85.24 0Q82.40 0 78.69 0.19L78.69 0.19ZM119.70 0.76L119.70 0.76Q114.97 0.76 111.67-1.26L111.67-1.26L111.67-1.26Q108.36-3.28 106.66-6.74L106.66-6.74L106.66-6.74Q104.96-10.21 104.96-14.43L104.96-14.43L104.96-14.43Q104.96-18.14 106.69-21.58L106.69-21.58L106.69-21.58Q108.42-25.01 111.64-27.15L111.64-27.15L111.64-27.15Q114.85-29.30 119.01-29.30L119.01-29.30L119.01-29.30Q124.61-29.30 127.64-26.43L127.64-26.43L127.64-26.43Q130.66-23.56 131.10-18.71L131.10-18.71L131.10-18.71Q131.10-16.63 129.97-15.88L129.97-15.88L129.97-15.88Q128.84-15.12 126.69-15.12L126.69-15.12L111.38-15.12L111.38-15.12Q111.38-9.26 113.81-5.83L113.81-5.83L113.81-5.83Q116.23-2.39 121.34-2.39L121.34-2.39L121.34-2.39Q124.05-2.39 125.94-3.56L125.94-3.56L125.94-3.56Q127.83-4.72 129.53-7.50L129.53-7.50L129.53-7.50Q129.84-7.81 130.16-7.81L130.16-7.81L130.16-7.81Q130.60-7.81 130.91-7.56L130.91-7.56L130.91-7.56Q131.54-7.18 131.54-6.43L131.54-6.43L131.54-6.43Q131.54-6.05 131.42-5.86L131.42-5.86L131.42-5.86Q129.47-2.71 126.47-0.98L126.47-0.98L126.47-0.98Q123.48 0.76 119.70 0.76L119.70 0.76ZM111.38-17.51L121.65-17.51L121.65-17.51Q124.87-17.51 125.06-20.16L125.06-20.16L125.06-20.16Q125.06-23.06 123.48-25.07L123.48-25.07L123.48-25.07Q121.91-27.09 119.01-27.09L119.01-27.09L119.01-27.09Q115.79-27.09 113.72-24.54L113.72-24.54L113.72-24.54Q111.64-21.99 111.38-17.51L111.38-17.51ZM137.28 0.19L137.28 0.19Q136.77 0.19 136.52-0.19L136.52-0.19L136.52-0.19Q136.27-0.57 136.27-1.07L136.27-1.07L136.27-1.07Q136.33-1.83 136.55-2.02L136.55-2.02L136.55-2.02Q136.77-2.21 137.34-2.21L137.34-2.21L137.34-2.21Q138.79-2.21 139.48-2.39L139.48-2.39L139.48-2.39Q140.18-2.58 140.71-3.18L140.71-3.18L140.71-3.18Q141.25-3.78 142.00-5.23L142.00-5.23L150.70-23.31L150.70-23.31Q151.45-24.95 151.45-25.58L151.45-25.58L151.45-25.58Q151.45-26.21 150.92-26.37L150.92-26.37L150.92-26.37Q150.38-26.52 149.06-26.52L149.06-26.52L146.41-26.52L146.41-26.52Q144.27-26.52 143.10-25.99L143.10-25.99L143.10-25.99Q141.94-25.45 141.25-23.91L141.25-23.91L141.25-23.91Q140.55-22.36 140.18-19.21L140.18-19.21L140.18-19.21Q140.11-18.71 139.58-18.46L139.58-18.46L139.58-18.46Q139.04-18.21 138.28-18.21L138.28-18.21L138.28-18.21Q137.78-18.21 137.34-18.52L137.34-18.52L137.34-18.52Q136.90-18.84 136.90-19.34L136.90-19.34L137.97-27.09L137.97-27.09Q138.10-27.97 138.44-28.26L138.44-28.26L138.44-28.26Q138.79-28.54 139.42-28.54L139.42-28.54L156.68-28.54L156.68-28.54Q157.75-28.54 160.27-28.66L160.27-28.66L161.78-28.73L161.78-28.73Q162.22-28.73 162.51-28.35L162.51-28.35L162.51-28.35Q162.79-27.97 162.79-27.47L162.79-27.47L162.79-27.47Q162.73-26.71 162.48-26.52L162.48-26.52L162.48-26.52Q162.22-26.33 161.72-26.33L161.72-26.33L161.72-26.33Q160.27-26.33 159.55-26.14L159.55-26.14L159.55-26.14Q158.82-25.96 158.29-25.36L158.29-25.36L158.29-25.36Q157.75-24.76 157.00-23.31L157.00-23.31L148.37-5.23L148.37-5.23Q147.61-3.65 147.61-2.96L147.61-2.96L147.61-2.96Q147.61-2.33 148.14-2.17L148.14-2.17L148.14-2.17Q148.68-2.02 150.00-2.02L150.00-2.02L153.53-2.02L153.53-2.02Q155.67-2.02 156.84-2.55L156.84-2.55L156.84-2.55Q158.00-3.09 158.70-4.63L158.70-4.63L158.70-4.63Q159.39-6.17 159.77-9.32L159.77-9.32L159.77-9.32Q159.83-9.83 160.37-10.08L160.37-10.08L160.37-10.08Q160.90-10.33 161.66-10.33L161.66-10.33L161.66-10.33Q162.16-10.33 162.60-10.02L162.60-10.02L162.60-10.02Q163.04-9.70 163.04-9.20L163.04-9.20L161.97-1.45L161.97-1.45Q161.85-0.57 161.50-0.28L161.50-0.28L161.50-0.28Q161.15 0 160.52 0L160.52 0L142.32 0L142.32 0Q141.31 0 138.66 0.13L138.66 0.13L137.28 0.19ZM176.21 0.76L176.21 0.76Q172.43 0.76 170.10-1.39L170.10-1.39L170.10-1.39Q167.77-3.53 167.77-6.74L167.77-6.74L167.77-6.74Q167.77-10.71 170.42-12.69L170.42-12.69L170.42-12.69Q173.06-14.68 176.72-15.28L176.72-15.28L176.72-15.28Q180.37-15.88 186.17-16.19L186.17-16.19L186.17-21.17L186.17-21.17Q186.17-24.25 184.62-25.86L184.62-25.86L184.62-25.86Q183.08-27.47 179.68-27.47L179.68-27.47L179.68-27.47Q177.72-27.47 176.27-26.27L176.27-26.27L176.27-26.27Q174.83-25.07 174.83-23.06L174.83-23.06L174.83-23.06Q174.83-22.05 175.30-21.39L175.30-21.39L175.30-21.39Q175.77-20.73 176.31-20.29L176.31-20.29L176.31-20.29Q176.84-19.84 176.84-19.78L176.84-19.78L176.84-19.78Q176.84-19.40 176.05-18.81L176.05-18.81L176.05-18.81Q175.27-18.21 174.13-18.21L174.13-18.21L174.13-18.21Q172.24-18.21 171.14-19.59L171.14-19.59L171.14-19.59Q170.04-20.98 170.04-22.87L170.04-22.87L170.04-22.87Q170.04-26.14 172.97-27.72L172.97-27.72L172.97-27.72Q175.90-29.30 180.05-29.30L180.05-29.30L180.05-29.30Q185.22-29.30 188.46-27.34L188.46-27.34L188.46-27.34Q191.71-25.39 191.71-20.10L191.71-20.10L191.71-5.42L191.71-5.42Q191.77-4.09 192.53-2.90L192.53-2.90L192.53-2.90Q193.28-1.70 194.99-1.70L194.99-1.70L194.99-1.70Q195.49-1.70 195.71-1.51L195.71-1.51L195.71-1.51Q195.93-1.32 195.93-0.69L195.93-0.69L195.93-0.69Q195.93 0.06 194.76 0.41L194.76 0.41L194.76 0.41Q193.60 0.76 192.47 0.76L192.47 0.76L192.47 0.76Q190.07 0.76 188.24-0.63L188.24-0.63L188.24-0.63Q186.42-2.02 186.17-4.35L186.17-4.35L186.17-4.35Q184.84-1.89 182.10-0.57L182.10-0.57L182.10-0.57Q179.36 0.76 176.21 0.76L176.21 0.76ZM178.23-2.65L178.23-2.65Q180.37-2.65 182.20-3.72L182.20-3.72L182.20-3.72Q184.02-4.79 185.09-6.65L185.09-6.65L185.09-6.65Q186.17-8.51 186.17-10.77L186.17-10.77L186.17-14.36L186.17-14.36Q179.55-13.86 176.84-12.22L176.84-12.22L176.84-12.22Q174.13-10.58 174.13-6.93L174.13-6.93L174.13-6.93Q174.13-2.65 178.23-2.65L178.23-2.65Z" fill="url(#editing-gradient-gradient)"></path></g></g><style>text {
  font-size: 64px;
  font-family: Arial Black;
  dominant-baseline: central;
  text-anchor: middle;
}</style></svg>